<svg width="20" height="20" viewBox="0 0 20 20" fill="none" xmlns="http://www.w3.org/2000/svg">
<path d="M1.66663 7.50002C1.66663 5.92835 1.66663 5.14335 2.15496 4.65502C2.64329 4.16669 3.42829 4.16669 4.99996 4.16669H15C16.5716 4.16669 17.3566 4.16669 17.845 4.65502C18.3333 5.14335 18.3333 5.92835 18.3333 7.50002C18.3333 7.89252 18.3333 8.08919 18.2116 8.21169C18.0891 8.33335 17.8916 8.33335 17.5 8.33335H2.49996C2.10746 8.33335 1.91079 8.33335 1.78829 8.21169C1.66663 8.08919 1.66663 7.89169 1.66663 7.50002ZM1.66663 15C1.66663 16.5717 1.66663 17.3567 2.15496 17.845C2.64329 18.3334 3.42829 18.3334 4.99996 18.3334H15C16.5716 18.3334 17.3566 18.3334 17.845 17.845C18.3333 17.3567 18.3333 16.5717 18.3333 15V10.8334C18.3333 10.4409 18.3333 10.2442 18.2116 10.1217C18.0891 10 17.8916 10 17.5 10H2.49996C2.10746 10 1.91079 10 1.78829 10.1217C1.66663 10.2442 1.66663 10.4417 1.66663 10.8334V15Z" fill="#3C3C3C"/>
<path d="M5.83325 2.5V5M14.1666 2.5V5" stroke="#3C3C3C" stroke-width="2" stroke-linecap="round"/>
</svg>
