<svg width="20" height="20" viewBox="0 0 20 20" fill="none" xmlns="http://www.w3.org/2000/svg">
<path d="M3.33325 15.8334V8.33335C3.33325 8.06947 3.39242 7.81947 3.51075 7.58335C3.62909 7.34724 3.79214 7.1528 3.99992 7.00002L8.99992 3.25002C9.29159 3.0278 9.62492 2.91669 9.99992 2.91669C10.3749 2.91669 10.7083 3.0278 10.9999 3.25002L15.9999 7.00002C16.2083 7.1528 16.3716 7.34724 16.4899 7.58335C16.6083 7.81947 16.6671 8.06947 16.6666 8.33335V15.8334C16.6666 16.2917 16.5033 16.6842 16.1766 17.0109C15.8499 17.3375 15.4577 17.5006 14.9999 17.5H12.4999C12.2638 17.5 12.066 17.42 11.9066 17.26C11.7471 17.1 11.6671 16.9022 11.6666 16.6667V12.5C11.6666 12.2639 11.5866 12.0661 11.4266 11.9067C11.2666 11.7472 11.0688 11.6672 10.8333 11.6667H9.16659C8.93047 11.6667 8.7327 11.7467 8.57325 11.9067C8.41381 12.0667 8.33381 12.2645 8.33325 12.5V16.6667C8.33325 16.9028 8.25325 17.1009 8.09325 17.2609C7.93325 17.4209 7.73547 17.5006 7.49992 17.5H4.99992C4.54159 17.5 4.14936 17.337 3.82325 17.0109C3.49714 16.6847 3.33381 16.2922 3.33325 15.8334Z" fill="#7B7B7B"/>
</svg>
