<svg width="18" height="18" viewBox="0 0 18 18" fill="none" xmlns="http://www.w3.org/2000/svg">
<path d="M5.25 12.75C4.2125 12.75 3.32825 12.3842 2.59725 11.6528C1.86625 10.9212 1.5005 10.037 1.5 9C1.4995 7.963 1.86525 7.07875 2.59725 6.34725C3.32925 5.61575 4.2135 5.25 5.25 5.25H7.5C7.7125 5.25 7.89075 5.322 8.03475 5.466C8.17875 5.61 8.2505 5.788 8.25 6C8.2495 6.212 8.1775 6.39025 8.034 6.53475C7.8905 6.67925 7.7125 6.751 7.5 6.75H5.25C4.625 6.75 4.09375 6.96875 3.65625 7.40625C3.21875 7.84375 3 8.375 3 9C3 9.625 3.21875 10.1562 3.65625 10.5938C4.09375 11.0312 4.625 11.25 5.25 11.25H7.5C7.7125 11.25 7.89075 11.322 8.03475 11.466C8.17875 11.61 8.2505 11.788 8.25 12C8.2495 12.212 8.1775 12.3902 8.034 12.5347C7.8905 12.6792 7.7125 12.751 7.5 12.75H5.25ZM6.75 9.75C6.5375 9.75 6.3595 9.678 6.216 9.534C6.0725 9.39 6.0005 9.212 6 9C5.9995 8.788 6.0715 8.61 6.216 8.466C6.3605 8.322 6.5385 8.25 6.75 8.25H11.25C11.4625 8.25 11.6408 8.322 11.7848 8.466C11.9288 8.61 12.0005 8.788 12 9C11.9995 9.212 11.9275 9.39025 11.784 9.53475C11.6405 9.67925 11.4625 9.751 11.25 9.75H6.75ZM10.5 12.75C10.2875 12.75 10.1095 12.678 9.966 12.534C9.8225 12.39 9.7505 12.212 9.75 12C9.7495 11.788 9.8215 11.61 9.966 11.466C10.1105 11.322 10.2885 11.25 10.5 11.25H12.75C13.375 11.25 13.9062 11.0312 14.3438 10.5938C14.7812 10.1562 15 9.625 15 9C15 8.375 14.7812 7.84375 14.3438 7.40625C13.9062 6.96875 13.375 6.75 12.75 6.75H10.5C10.2875 6.75 10.1095 6.678 9.966 6.534C9.8225 6.39 9.7505 6.212 9.75 6C9.7495 5.788 9.8215 5.61 9.966 5.466C10.1105 5.322 10.2885 5.25 10.5 5.25H12.75C13.7875 5.25 14.672 5.61575 15.4035 6.34725C16.135 7.07875 16.5005 7.963 16.5 9C16.4995 10.037 16.1338 10.9215 15.4028 11.6535C14.6718 12.3855 13.7875 12.751 12.75 12.75H10.5Z" fill="#2563EB"/>
</svg>
