<svg width="35" height="35" viewBox="0 0 35 35" fill="none" xmlns="http://www.w3.org/2000/svg">
<path d="M19.6875 23.3333C19.6875 23.9135 19.457 24.4699 19.0468 24.8801C18.6366 25.2904 18.0802 25.5208 17.5 25.5208C16.9198 25.5208 16.3634 25.2904 15.9532 24.8801C15.543 24.4699 15.3125 23.9135 15.3125 23.3333C15.3125 22.7532 15.543 22.1968 15.9532 21.7865C16.3634 21.3763 16.9198 21.1458 17.5 21.1458C18.0802 21.1458 18.6366 21.3763 19.0468 21.7865C19.457 22.1968 19.6875 22.7532 19.6875 23.3333Z" fill="#219223"/>
<path d="M20.9227 0.962494L25.5602 7.46083L28.6183 6.41812L31.4096 14.5833H32.8125V32.0833H2.1875V14.5833H2.93125V14.5687L3.87625 14.5775L20.9227 0.962494ZM13.704 14.5833H28.3281L26.8158 10.1602L24.5962 10.8704L13.704 14.5833ZM11.4319 12.2748L22.6771 8.44374L20.3379 5.16249L11.4319 12.2748ZM8.02083 17.5H5.10417V20.4167C5.87771 20.4167 6.61958 20.1094 7.16656 19.5624C7.71354 19.0154 8.02083 18.2735 8.02083 17.5ZM22.6042 23.3333C22.6042 22.663 22.4721 21.9993 22.2156 21.38C21.9591 20.7608 21.5832 20.1981 21.1092 19.7241C20.6352 19.2502 20.0725 18.8742 19.4533 18.6177C18.834 18.3612 18.1703 18.2292 17.5 18.2292C16.8297 18.2292 16.166 18.3612 15.5467 18.6177C14.9275 18.8742 14.3648 19.2502 13.8908 19.7241C13.4168 20.1981 13.0409 20.7608 12.7844 21.38C12.5279 21.9993 12.3958 22.663 12.3958 23.3333C12.3958 24.687 12.9336 25.9853 13.8908 26.9425C14.848 27.8997 16.1463 28.4375 17.5 28.4375C18.8537 28.4375 20.152 27.8997 21.1092 26.9425C22.0664 25.9853 22.6042 24.687 22.6042 23.3333ZM29.8958 29.1667V26.25C29.1223 26.25 28.3804 26.5573 27.8334 27.1043C27.2865 27.6512 26.9792 28.3931 26.9792 29.1667H29.8958ZM26.9792 17.5C26.9792 18.2735 27.2865 19.0154 27.8334 19.5624C28.3804 20.1094 29.1223 20.4167 29.8958 20.4167V17.5H26.9792ZM5.10417 29.1667H8.02083C8.02083 28.3931 7.71354 27.6512 7.16656 27.1043C6.61958 26.5573 5.87771 26.25 5.10417 26.25V29.1667Z" fill="#219223"/>
</svg>
