<svg width="31" height="31" viewBox="0 0 31 31" fill="none" xmlns="http://www.w3.org/2000/svg">
<path d="M11.625 3.875H5.16667C4.8241 3.875 4.49555 4.01109 4.25332 4.25332C4.01109 4.49555 3.875 4.8241 3.875 5.16667V11.625C3.875 11.9676 4.01109 12.2961 4.25332 12.5383C4.49555 12.7806 4.8241 12.9167 5.16667 12.9167H11.625C11.9676 12.9167 12.2961 12.7806 12.5383 12.5383C12.7806 12.2961 12.9167 11.9676 12.9167 11.625V5.16667C12.9167 4.8241 12.7806 4.49555 12.5383 4.25332C12.2961 4.01109 11.9676 3.875 11.625 3.875ZM11.625 18.0833H5.16667C4.8241 18.0833 4.49555 18.2194 4.25332 18.4617C4.01109 18.7039 3.875 19.0324 3.875 19.375V25.8333C3.875 26.1759 4.01109 26.5044 4.25332 26.7467C4.49555 26.9889 4.8241 27.125 5.16667 27.125H11.625C11.9676 27.125 12.2961 26.9889 12.5383 26.7467C12.7806 26.5044 12.9167 26.1759 12.9167 25.8333V19.375C12.9167 19.0324 12.7806 18.7039 12.5383 18.4617C12.2961 18.2194 11.9676 18.0833 11.625 18.0833ZM22.6042 12.9167C23.1979 12.9167 23.7857 12.7997 24.3342 12.5725C24.8827 12.3453 25.3811 12.0123 25.8009 11.5925C26.2207 11.1727 26.5537 10.6744 26.7809 10.1259C27.0081 9.57739 27.125 8.98952 27.125 8.39583C27.125 7.80215 27.0081 7.21428 26.7809 6.66579C26.5537 6.11729 26.2207 5.61892 25.8009 5.19912C25.3811 4.77932 24.8827 4.44632 24.3342 4.21913C23.7857 3.99193 23.1979 3.875 22.6042 3.875C21.4052 3.875 20.2553 4.3513 19.4075 5.19912C18.5596 6.04694 18.0833 7.19683 18.0833 8.39583C18.0833 9.59483 18.5596 10.7447 19.4075 11.5925C20.2553 12.4404 21.4052 12.9167 22.6042 12.9167ZM25.8333 18.0833H19.375C19.0324 18.0833 18.7039 18.2194 18.4617 18.4617C18.2194 18.7039 18.0833 19.0324 18.0833 19.375V25.8333C18.0833 26.1759 18.2194 26.5044 18.4617 26.7467C18.7039 26.9889 19.0324 27.125 19.375 27.125H25.8333C26.1759 27.125 26.5044 26.9889 26.7467 26.7467C26.9889 26.5044 27.125 26.1759 27.125 25.8333V19.375C27.125 19.0324 26.9889 18.7039 26.7467 18.4617C26.5044 18.2194 26.1759 18.0833 25.8333 18.0833Z" fill="#CD4637" stroke="#CD4637" stroke-width="2" stroke-linejoin="round"/>
</svg>
