<svg width="27" height="27" viewBox="0 0 27 27" fill="none" xmlns="http://www.w3.org/2000/svg">
<path d="M11.556 16.7305V26.4154H7.6875V16.7305H11.556ZM20.2877 14.793H15.7656C15.5087 14.793 15.2623 14.8951 15.0806 15.0767C14.8989 15.2584 14.7968 15.5048 14.7968 15.7617V20.2852C14.7968 20.8199 15.2295 21.2539 15.7656 21.2539H20.2877C20.5446 21.2539 20.791 21.1519 20.9727 20.9702C21.1544 20.7885 21.2565 20.5421 21.2565 20.2852V15.7617C21.2565 15.5048 21.1544 15.2584 20.9727 15.0767C20.791 14.8951 20.5446 14.793 20.2877 14.793ZM19.319 16.7305V19.3164H16.733V16.7305H19.319ZM8.54646 7.04429H2.52213V8.54908C2.52213 10.0732 3.65621 11.3352 5.12742 11.5341L5.32892 11.5548L5.53559 11.5612C6.29919 11.562 7.03452 11.2725 7.59262 10.7513C8.15072 10.2301 8.48984 9.51632 8.5413 8.75446L8.54904 8.54779L8.54646 7.04429ZM16.5096 7.04429H10.4853V8.54908C10.4853 10.0732 11.6193 11.3352 13.0905 11.5341L13.292 11.5548L13.4987 11.5612C14.2623 11.562 14.9976 11.2725 15.5557 10.7513C16.1138 10.2301 16.453 9.51632 16.5044 8.75446L16.5122 8.54779L16.5096 7.04429ZM24.4753 7.04429H18.4497L18.451 8.54908C18.451 10.0732 19.585 11.3352 21.055 11.5341L21.2578 11.5548L21.4644 11.5612C22.2278 11.5611 22.9626 11.2712 23.5205 10.7503C24.0784 10.2293 24.4178 9.51599 24.4701 8.75446L24.4766 8.54779L24.4753 7.04429ZM9.70379 2.52087H6.17109L3.77375 5.10679H8.91071L9.70379 2.52087ZM15.2683 2.52087H11.7317L10.936 5.10679H16.064L15.2683 2.52087ZM20.8276 2.52087H17.2975L18.0919 5.10679H23.2275L20.8276 2.52087ZM0.844253 5.41679L5.03959 0.893374C5.19123 0.729708 5.39471 0.623402 5.61567 0.592416L5.75 0.583374H21.25C21.4736 0.583159 21.6903 0.660283 21.8635 0.801666L21.9604 0.892083L26.188 5.45167L26.2268 5.50075C26.3585 5.67642 26.418 5.87533 26.418 6.06908L26.4154 8.54908C26.4154 9.833 25.9271 11.0032 25.1237 11.8816V25.448C25.1237 25.6821 25.0389 25.9082 24.8851 26.0847C24.7312 26.2611 24.5186 26.3758 24.2867 26.4077L24.155 26.4167L13.4948 26.4154V15.7617C13.4948 15.5048 13.3928 15.2584 13.2111 15.0767C13.0294 14.8951 12.783 14.793 12.5261 14.793H6.71875C6.46182 14.793 6.21542 14.8951 6.03374 15.0767C5.85207 15.2584 5.75 15.5048 5.75 15.7617V26.4154L2.84634 26.4167C2.61202 26.417 2.38553 26.3324 2.20883 26.1785C2.03213 26.0246 1.9172 25.8118 1.88534 25.5797L1.87759 25.448L1.875 11.8829C1.102 11.0368 0.647596 9.94809 0.589795 8.80354L0.583337 8.54908V6.12462C0.572266 5.94061 0.615377 5.75739 0.707337 5.59762L0.77192 5.49946L0.844253 5.41679Z" fill="#2563EB"/>
</svg>
