<svg width="80" height="80" viewBox="0 0 80 80" fill="none" xmlns="http://www.w3.org/2000/svg">
<path d="M40 0C62.0914 0 80 17.9086 80 40C80 62.0914 62.0914 80 40 80C17.9086 80 0 62.0914 0 40C0 17.9086 17.9086 0 40 0ZM35.7461 27.9814C33.1674 26.5803 30.0002 28.4037 30 31.291V48.71C30 51.5962 33.1674 53.4212 35.7461 52.0176L51.7617 43.3086C52.3619 42.9893 52.8638 42.5124 53.2139 41.9297C53.564 41.3469 53.749 40.6799 53.749 40C53.749 39.3201 53.564 38.6531 53.2139 38.0703C52.8638 37.4876 52.3619 37.0107 51.7617 36.6914L35.7461 27.9814Z" fill="white"/>
</svg>
