<svg width="31" height="31" viewBox="0 0 31 31" fill="none" xmlns="http://www.w3.org/2000/svg">
<path d="M24.5417 3.875H6.45833C5.0375 3.875 3.875 5.0375 3.875 6.45833V24.5417C3.875 25.9625 5.0375 27.125 6.45833 27.125H24.5417C25.9625 27.125 27.125 25.9625 27.125 24.5417V6.45833C27.125 5.0375 25.9625 3.875 24.5417 3.875ZM9.04167 9.04167H11.625V11.625H9.04167V9.04167ZM9.04167 14.2083H11.625V16.7917H9.04167V14.2083ZM9.04167 19.375H11.625V21.9583H9.04167V19.375ZM21.9583 21.9583H14.2083V19.375H21.9583V21.9583ZM21.9583 16.7917H14.2083V14.2083H21.9583V16.7917ZM21.9583 11.625H14.2083V9.04167H21.9583V11.625Z" fill="#42B55A"/>
</svg>
